<?xml version="1.0" encoding="UTF-8"?>
<svg width="66px" height="66px" viewBox="0 0 66 66" version="1.1" xmlns="http://www.w3.org/2000/svg" xmlns:xlink="http://www.w3.org/1999/xlink">
    <!-- Generator: Sketch 50 (54983) - http://www.bohemiancoding.com/sketch -->
    <title>Artboard</title>
    <desc>Created with Sketch.</desc>
    <defs>
        <linearGradient x1="0%" y1="0%" x2="100%" y2="100%" id="linearGradient-1">
            <stop stop-color="#8551CD" offset="0%"></stop>
            <stop stop-color="#53A0FD" offset="47.3582009%"></stop>
            <stop stop-color="#72E5ED" offset="100%"></stop>
        </linearGradient>
    </defs>
    <g id="Artboard" stroke="none" stroke-width="1" fill="none" fill-rule="evenodd">
        <path d="M0,0 L0,66 L66,66 L66,0 L0,0 Z M59.8937008,47.5511811 L48.0708661,47.5511811 L48.0708661,31.4929134 C48.0708661,26.5818898 46.407874,24.6850394 43.1858268,24.6850394 C39.2751969,24.6850394 37.6771654,27.4523622 37.6771654,31.4279528 L37.6771654,41.3149606 L41.4448819,41.3149606 L41.4448819,47.5511811 L29.6220472,47.5511811 L29.6220472,31.4929134 C29.6220472,26.5818898 27.9590551,24.6850394 24.7370079,24.6850394 C20.826378,24.6850394 19.2283465,27.4523622 19.2283465,31.4279528 L19.2283465,41.3149606 L24.6850394,41.3149606 L24.6850394,47.5511811 L7.27559055,47.5511811 L7.27559055,41.3149606 L11.0433071,41.3149606 L11.0433071,25.2047244 L7.27559055,25.2047244 L7.27559055,19.0984252 L19.2283465,19.0984252 L19.2283465,23.3598425 C20.9173228,20.3326772 23.8925197,18.5137795 27.8551181,18.5137795 C31.9476378,18.5137795 35.7283465,20.4625984 37.1185039,24.6200787 C38.6905512,20.8393701 41.8866142,18.5137795 46.3688976,18.5137795 C51.4748031,18.5137795 56.1259843,21.6059055 56.1259843,28.3488189 L56.1259843,41.3149606 L59.8937008,41.3149606 L59.8937008,47.5511811 Z" id="Shape" fill="url(#linearGradient-1)" fill-rule="nonzero"></path>
    </g>
</svg>